<svg xmlns="http://www.w3.org/2000/svg" viewBox="0 0 64 64" width="100%" height="100%">
  <defs>
    <linearGradient id="favBg" x1="0%" y1="0%" x2="100%" y2="100%">
      <stop offset="0%" stop-color="#1b1f30"/>
      <stop offset="100%" stop-color="#090a10"/>
    </linearGradient>
    <linearGradient id="favGold" x1="0%" y1="0%" x2="100%" y2="100%">
      <stop offset="0%" stop-color="#ffe699"/>
      <stop offset="60%" stop-color="#d49b29"/>
      <stop offset="100%" stop-color="#9e6c0c"/>
    </linearGradient>
  </defs>
  <rect width="64" height="64" rx="16" fill="url(#favBg)" stroke="rgba(245, 207, 115, 0.4)" stroke-width="1.5"/>
  <g transform="translate(32, 32)">
    <path d="M-18,-10 C-17,-2 -14,8 -8,15 L-8,4 C-12,-2 -14,-7 -18,-10 Z" fill="url(#favGold)"/>
    <path d="M18,-10 C17,-2 14,8 8,15 L8,4 C12,-2 14,-7 18,-10 Z" fill="url(#favGold)"/>
    <path d="M-11,-12 C-5,-14 5,-14 11,-12 C10,-1 7,9 0,19 C-7,9 -10,-1 -11,-12 Z" fill="url(#favGold)"/>
    <circle cx="0" cy="-3" r="2.5" fill="#090a10"/>
    <line x1="0" y1="0" x2="0" y2="18" stroke="#090a10" stroke-width="1.5" stroke-linecap="round"/>
  </g>
</svg>
